<?xml version="1.0" encoding="utf-8"?>
<!-- Generator: Adobe Illustrator 25.1.0, SVG Export Plug-In . SVG Version: 6.00 Build 0)  -->
<svg version="1.1" id="Layer_1" xmlns="http://www.w3.org/2000/svg" xmlns:xlink="http://www.w3.org/1999/xlink" x="0px" y="0px"
	 viewBox="0 0 705.1 519.3" style="enable-background:new 0 0 705.1 519.3;" xml:space="preserve">
<style type="text/css">
	.st0{fill:#BFBFBF;}
	.st1{fill:#E3FFBF;}
	.st2{fill:#FFB7C2;}
	.st3{fill:none;stroke:#000000;stroke-width:2;stroke-miterlimit:10;}
</style>
<g id="Layer_2_1_">
	<g id="Layer_1-2">
		<path class="st0" d="M201.9,417.6L201.9,417.6C202,417.6,202,417.6,201.9,417.6L201.9,417.6z"/>
		<path d="M601.1,83.6c-0.1,0.7-0.1,1.4-0.2,2c-1.2,11.5-3.8,22.8-7.5,33.8c-1.8,5.5-4,10.9-6.3,16.2c-1.2,2.7-2.4,5.3-3.7,7.9
			c-1.3,2.6-2.8,5-4.2,7.5c-2.2,3.8-4.1,7.8-5.8,11.9c-1.5,3.8-3.4,7.4-5.8,10.7c17.6,26.6,27.5,56.9,27.5,89
			c0,30.9-9.2,60-25.5,85.9c-0.4,0.1-0.8,0.1-1.1,0.2c-3.6,0.8-7.1,1.9-10.5,3.3c-10.3,4.1-19.4,10.7-26.6,19.2
			c-1.1,1.3-2.2,3.5-3.7,4c-1.2,0.4-2.3-0.1-3.6,0.6c-4.1,2.3-5.7,7.5-9.8,10c-2.4,1.4-4.7,2.9-6.9,4.6
			c-6.6,5.6-13.1,11.2-19.7,16.9c-1.3,1.1-2.7,2.4-2.9,4.1s1,3.5,2.2,4.9c0.4,0.4,0.8,0.8,1.3,1.2H202c-0.1-0.3-0.3-0.7-0.4-1.1
			c-3.8-10.7-10.2-20.1-16.3-29.5c-7.5-11.6-15.8-23-27-31.2c-9.8-7.1-21.2-11.2-33.2-13.3c-14.1-24.4-21.9-51.4-21.9-79.9
			c0-30.8,9.1-59.9,25.4-85.7c-4-3.1-7-9.2-8.8-13.7c-1.7-4.1-3.6-8-5.7-11.8c-1.4-2.5-3-4.9-4.2-7.5s-2.5-5.2-3.7-7.9
			c-2.3-5.3-4.4-10.7-6.3-16.2c-3.7-10.9-6.3-22.3-7.5-33.8c-0.1-0.7-0.1-1.3-0.2-2c-1-11.3-0.5-22.7,1.5-33.9
			c1-5.6,2.5-11,4.4-16.4c0.9-2.7,2-5.3,3.2-7.9c0.8-1.6,1.8-3.1,2.8-4.6c3.7-5.5,8.5-10.2,14.2-13.8c3.2-2,6.7-3.7,10.3-4.8
			c5.2-1.7,10.6-2.5,16.1-2.3c1.3,0,2.7,0.3,4,0.3c0.9-0.1,1.7-0.1,2.6-0.1c5.8,1,11.5,2.9,16.8,5.6l11.3,5.6
			c4.6,2.3,9.2,4.6,13.5,7.3c11.9,7.5,21.5,18.1,31,28.5c3.2,3.4,6.2,7,8.9,10.8c1.3,1.9,2.4,3.8,3.3,5.9c1,2.2,2.8,4.1,4,6.2
			c1.4,2.3,2.8,4.6,4.2,6.9l5.1,8.4c63.2-21.6,131.7-22.1,195.3-1.5c1.5-2.4,3-4.8,4.4-7.2l4.2-6.9c1.2-2.1,3-4,4-6.2
			c1-2.1,2.1-4,3.4-5.9c2.7-3.8,5.7-7.4,8.9-10.8c9.5-10.4,19.1-21,31-28.5c4.3-2.7,8.9-5,13.5-7.3l11.3-5.6
			c5.3-2.7,10.9-4.6,16.8-5.6c0.9-0.1,1.8,0,2.6,0.1c1.3,0,2.7-0.2,4-0.2c5.4-0.2,10.9,0.6,16.1,2.3c3.6,1.2,7.1,2.8,10.3,4.8
			c5.6,3.5,10.5,8.2,14.2,13.8c1.1,1.5,2,3,2.8,4.6c1.2,2.6,2.2,5.2,3.2,7.9c1.9,5.3,3.3,10.8,4.4,16.4
			C601.7,60.9,602.2,72.3,601.1,83.6z"/>
		<path class="st0" d="M202,417.7L202,417.7L202,417.7C202,417.6,202,417.7,202,417.7z"/>
		<path d="M224.6,471.5c-0.4,1.3-0.8,2.5-1.2,3.8c-0.3,0.9-0.9,1.6-1.2,2.5c-0.4,1.1-0.6,2.3-0.9,3.4c-0.4,1.1-0.8,2.3-1.2,3.4
			c-2,4.4-4.4,8.5-7.2,12.5c-1,1.8-2.4,3.4-4.1,4.6c-2,1.2-4.5,1.3-6.9,1.2c-3.2-0.1-6.4-0.3-9.5-0.7c-3.8-0.5-8.3-1.9-9-5.7
			c-1.1,6.5-3.9,13-8.9,17.4c-5,4.4-12.2,6.5-18.5,4.5c-3.3-1.1-6.2-3.2-9.1-5.2c-2.9,3.5-7.4,5.3-11.9,6c-4.5,0.5-9.1,0.3-13.6-0.6
			c-3-0.3-6-1.1-8.7-2.5c-2.7-1.5-4.9-4.1-5.1-7.1c-12,6.3-28.1,3.4-37-6.8c-2.2-2.5-3.9-5.5-4.7-8.7c-1.6-6.7,1.4-13.6,4.4-19.8
			c0.8-1.6,1.5-3.2,2.3-4.8l1.1-2.3c0.5-1,0.6-2.1,0.3-3.2c-1.8-12.4-5.8-24.8-10.4-36.6c-0.8-2.1-1.7-4.2-2.6-6.3
			c-0.4-0.9-0.8-1.8-1.3-2.7H1.5c-0.3,0-0.4-0.2-0.6-0.9c-1.1-3.4-0.8-7.8-0.7-11.4c0.6-14.5,6.9-28.2,17.5-38.1
			c2.5-2.3,5.1-4.4,7.9-6.2c1.3-0.9,2.8-1.6,4.2-2.3c3.5-1.4,6.9-3.3,10.4-4.8c4.1-1.7,8.3-3.3,12.5-4.7c15.8-5.3,32.2-8.1,48.9-8.4
			c7.9-0.2,15.8,0.4,23.5,1.7c11.9,2.1,23.4,6.2,33.2,13.3c11.2,8.1,19.4,19.6,27,31.2c6.2,9.5,12.6,18.9,16.3,29.5
			c0.1,0.4,0.3,0.7,0.4,1.1H202l0.1,0.1c1.7,4,4.4,6.9,7.1,10.3c3.8,4.6,7.3,9.4,10.4,14.4c2.7,4.3,5.2,8.8,6.2,13.8
			C226.7,461.3,226.3,466.6,224.6,471.5z"/>
		<path class="st0" d="M1.5,417.6h1.1C2.2,417.7,1.8,417.7,1.5,417.6z"/>
		<path class="st0" d="M202,417.7L202,417.7L202,417.7C202,417.6,202,417.7,202,417.7z"/>
		<path d="M700.3,474.4c-4.1,6.1-12.2,10-19,7.1c-1-0.4-2.2-1.1-3.3-0.6c-0.6,0.3-0.5,1-0.5,1.5c-0.1,1-0.4,1.9-0.7,2.8
			c-0.6,1.9-1.5,3.6-2.7,5.1c-0.9,1.1-1.9,2-3.2,2.7c-0.5,0.3-1.1,0.6-1.7,0.7c-0.5,0.2-1,0.6-1.4,1c-1.5,1.2-3.1,2-4.9,2.6
			c-0.9,0.3-1.8,0.5-2.7,0.6c-0.5,0.1-0.9,0.1-1.4,0.1c-0.5,0.1-1,0.2-1.5,0.4c-1.2,0.3-2.4,0.4-3.7,0.1c-1-0.3-2-0.7-2.9-1.3
			l-3-1.7c-0.9-0.4-1.8-1-2.6-1.6c-0.5-0.5-1.2-1-1.8-1.4c-0.3-0.2-1.3-1-1.8-0.8c0,0,0,0-0.1,0c-1.2,2.3-1.1,5.9-1.4,8.5
			c-0.1,0.9-0.5,1.8-1,2.5c-3.4,4.2-9.4,7.1-14.5,8.5c-11.9,3.1-24.5-0.3-33.1-9c-7,6.6-17,11.5-26.2,8.9
			c-11.6-3.4-17.1-16.9-17.4-29c-0.2-6.8,0.8-13.5,1.4-20.3c0.3-3.3,0.5-6.6,0.5-9.9c0-1.6-0.1-3.3-0.2-4.9
			c-0.2-3.1-1.6-5.7-2.8-8.5c-1.8-4-2.9-8.2-5-12c-0.6-1.1-1.4-2.9-2.6-3.5c-0.3-0.2-0.8-0.2-1.1-0.4c-1.9-1.1-2.9-3.3-4.3-4.8
			l-0.1-0.1c-0.2-0.3-0.5-0.4-0.8-0.5c-0.3,0-0.5,0.1-0.8,0.2c-0.2,0-0.5,0.1-0.7,0.3h-42.9c-0.4-0.4-0.9-0.8-1.3-1.2
			c-1.3-1.3-2.5-3-2.2-4.9s1.6-3,2.9-4.1c6.6-5.6,13.1-11.3,19.7-16.9c2.2-1.7,4.5-3.3,6.9-4.6c4-2.5,5.7-7.8,9.8-10
			c1.3-0.7,2.5-0.2,3.6-0.6c1.5-0.5,2.6-2.6,3.7-4c7.1-8.5,16.3-15.2,26.6-19.4c3.4-1.3,7-2.4,10.5-3.2c0.4-0.1,0.8-0.2,1.1-0.2
			c13.7-2.9,28.2-2,42,0.8c9.7,1.9,18.8,5.1,28.1,8.1c2.5,0.8,5.2,1,7.4,2.5c3.2,2.1,5.6,5.9,8.1,8.7c6.7,7.9,13.5,15.9,18.3,25.2
			c2.2,4.3,5.5,7.1,9,10.3c4.3,4.1,8.4,8.4,12.2,12.9l0.4,0.5c3.1,3.8,6,7.8,7.5,12.4c0.5,1.5,0.7,3.1,0.7,4.8c0.1,2,0.4,4,0.9,5.9
			c0.6,4.2,0.9,8.4,1,12.6C705.2,460.6,704.4,468.3,700.3,474.4z"/>
		<ellipse class="st1" cx="228" cy="245.3" rx="63.8" ry="56.1"/>
		<ellipse class="st1" cx="465.4" cy="245.3" rx="63.8" ry="56.1"/>
		<ellipse cx="227.2" cy="245.6" rx="8" ry="28.5"/>
		<ellipse cx="465.2" cy="245.6" rx="8" ry="28.5"/>
		<path class="st2" d="M355.2,339.3l16.4-20.1c3.6-4.5,3-11-1.5-14.7c-1.9-1.5-4.2-2.3-6.6-2.3h-32.9c-5.8,0-10.4,4.7-10.4,10.4
			c0,2.4,0.8,4.7,2.3,6.6l16.4,20.1c3.6,4.5,10.2,5.1,14.7,1.5C354.2,340.3,354.7,339.8,355.2,339.3z"/>
		<path class="st3" d="M587.4,296.5c10.6,0.7,21.8-1.2,29.4-5"/>
		<path class="st3" d="M577.4,316.6c13.4-1.5,26.9-0.3,39.8,3.4"/>
		<path class="st3" d="M562.8,337.3c18.1,0.3,36.3,0.4,54.4,0.1"/>
		<path class="st3" d="M108.3,299.7c-10.6,0.7-21.8-1.2-29.4-5"/>
		<path class="st3" d="M118.3,319.8c-13.4-1.5-26.9-0.3-39.8,3.4"/>
		<path class="st3" d="M132.9,340.5c-18.1,0.3-36.3,0.4-54.4,0.1"/>
	</g>
</g>
</svg>
