<svg xmlns="http://www.w3.org/2000/svg" viewBox="0 0 647.62 553.15"><defs><style>.cls-1{fill:#bfbfbf;}.cls-2{fill:#fffdf4;}.cls-3{fill:#fff;}.cls-4{fill:#c97100;}.cls-5{fill:#9f5e00;}</style></defs><g id="Layer_2" data-name="Layer 2"><g id="Layer_1-2" data-name="Layer 1"><path class="cls-1" d="M193.4,403.34h.07s0,0,0,.06Z"/><path class="cls-2" d="M532.46,111.89c.3.6.59,1.2.88,1.8,1.36,2.84,2.74,5.72,3.83,8.68a54.53,54.53,0,0,1,1.33,6c.64,2.59,2.18,4.93,3.26,7.34a83.64,83.64,0,0,1,3.39,8.85c1.17,3.65,3.44,9.13,2.27,12.93-.59,1.93-.64,2.59.46,4.42,1.3,2.16,2.59,4.31,3.81,6.51,1.84,3.29,4.16,6.85,5.36,10.46.55,1.64.53,4,.82,5.77a51,51,0,0,1,.34,5.11c.2,3.54.32,7.08.22,10.63-.2,7-1.26,14-4.18,20.3-2.7,5.83-6.84,10.79-10.42,16.08a95.63,95.63,0,0,0-7.3,12.84c-2.88,6.13-4.59,12.47-6.69,18.87-.74,2.26-1.64,4.14-1.2,6.57.61,3.38,1.75,6.68,2.37,10.07,2.54,13.83,1.94,28,.36,41.94a84.13,84.13,0,0,1-2.68,14.7c-2.59,8.68-7.55,16.47-13.06,23.67-4.32,5.64-9.3,10.73-13.32,16.56-3.74,5.43-11.22,8.45-16.72,11.86L443.1,420.16C427.15,430,410.93,440,392.85,445c-11.86,3.26-24.21,4.26-36.5,4.64a371,371,0,0,1-147.93-26c-19.15-7.61-38.24-17.27-51.46-33.09l-.66-.81c-11-13.49-16.76-30.21-20-47.09a263.58,263.58,0,0,1-3.5-26.26c-.38-4.19-1-8.45-.71-12.66.47-7.67-3.58-14.4-5.8-21.69a53.25,53.25,0,0,1-2.69-13.38c-.07-1.77.27-3.24-.74-4.74-4.55-6.74-8.93-13.34-14.52-19.29a108.65,108.65,0,0,1-7.68-8.5,26.77,26.77,0,0,1-3-4.8c-1.12-2.37-1.29-5-1.91-7.55-1.71-7.16-2.76-14.58-5-21.57-.66-2.11-.09-4.07.61-6.13,1.73-5.09,4.86-9.53,8-13.75q5.94-7.87,12.37-15.33a20.43,20.43,0,0,0,2.68-3.45,14.78,14.78,0,0,0,1.18-4c1-4.35,3.09-8.52,5-12.47a131.15,131.15,0,0,1,11.35-18.57c1.55-2.14,3.66-4.22,4.79-6.69a12.45,12.45,0,0,0,.72-5c.21-5.9,1.48-11.92,2.7-17.67a177.82,177.82,0,0,1,11.34-35.15A172.09,172.09,0,0,1,164.2,40.71c4.73-7.39,10.17-14.56,17.43-19.27s15.51-6.59,23.76-8.27C270.88-.17,338.14-.1,404.88,0a128.21,128.21,0,0,1,19.7,1.05c17,2.68,32.47,12.21,45.23,24.19S492.92,51.65,503.18,66c7.3,10.16,14.59,20.35,21.1,31.09C527.2,101.88,530,106.82,532.46,111.89Z"/><path class="cls-1" d="M193.49,403.4l-.09-.06h.07S193.48,403.38,193.49,403.4Z"/><path class="cls-3" d="M146,523a2.88,2.88,0,0,1-.59,0c-.33-.07-1.6-.45-1.62-.93,0,1,.06,2,.07,2.93a7.32,7.32,0,0,1,0,1.48c-.13.66-.46.81-1,1.3a110,110,0,0,1-18.7,14.1A99.21,99.21,0,0,1,113,547.61c-1,.42-1.91.82-2.87,1.2a18.47,18.47,0,0,1-2.7,1.07,2.84,2.84,0,0,1-2.19-1c-.45-.4-1.55-1.53-1.47-2.29a7.92,7.92,0,0,1-2.72,4.86c-1,.91-2.52.92-3.67,1.12A30.75,30.75,0,0,1,85,552.44c-8.4-2-15-8.38-21.18-14.54-1.43-1.42-3.07-2.74-3.84-4.79a7.36,7.36,0,0,1-.41-2.86c0-.23.5-2.88.72-2.79L59.1,527c-1.14,1.17-3.28,2.53-4.59,1.5A34.53,34.53,0,0,1,50.37,524c-1.67-1.88-3.3-3.81-4.86-5.79A89.17,89.17,0,0,1,37,505.53a68.1,68.1,0,0,1-3.77-8.22,62.06,62.06,0,0,1-4.15-20.21,52.79,52.79,0,0,1,.71-10.54c2-11.63,4-23.17,4.92-34.91.21-2.57.4-5.12.55-7.65.2-3.13-.71-5.74-.74-8.84a28.64,28.64,0,0,1,.81-6.86,39.38,39.38,0,0,1,5.8-12.93c5-7.33,11.73-13,18.35-18.46C70.46,367.84,82,358.4,95,354.32c2.65-.82,6-1.94,8.63-1.69a6.4,6.4,0,0,1,2.57,1.21c1.35.75,2.86,1.23,4.27,1.85a100.23,100.23,0,0,1,16.79,9.25c9.68,6.7,18,15.39,23.5,26.62,6.28,12.86,8.45,28.2,10,43.39,1.21,12.4,2.67,24.86,1.22,37.67,0,.43-.09.87-.11,1.28l-.06,0,.06.1c-.3,4.84.78,9.06,1.74,13.64q.38,1.88.72,3.75c.38,2.09.77,4.2,1,6.32.21,1.74-1,3.18-1.94,4.7q-2.85,4.73-6.1,9.14t-7,8.59c-.88,1-1.79,2.39-3,2.71A4.94,4.94,0,0,1,146,523Z"/><path class="cls-1" d="M0,403.34H1A8.45,8.45,0,0,1,0,403.34Z"/><path class="cls-1" d="M193.49,403.4l-.09-.06h.07S193.48,403.38,193.49,403.4Z"/><path class="cls-4" d="M498,259.36c-25.44-11.16-51.38-22.45-78.88-25.13-10.72-1-21.94-.86-31.62-5.74a42.36,42.36,0,0,1-15.33-13.9c-16.83-24.22-12.54-58.16-1.08-85.54s29.17-51.81,38.54-80c4.43-13.37,7.77-28.69,19.13-36.51,5.46-3.75,12.14-5.19,18.69-5.34,18.12-.4,35.07,8.37,51.6,16.06a46.89,46.89,0,0,1,10.32,6.05c2.23,1.75,4.41,3.56,6.56,5.41q6.43,5.57,12.39,11.69A205.88,205.88,0,0,1,550,72.78a211.22,211.22,0,0,1,29.44,62.09c1.37,4.78,3.24,10,3.57,15,.24,3.68-1.94,6.81-3,10.21-3.22,10.64-6.49,21.21-10.23,31.66-2.76,7.73-5.67,15.4-8.63,23q-2.22,5.72-4.48,11.42a30.53,30.53,0,0,0-1.89,5.23c-.44,2.28-1.3,3.29-2.53,5.4q-1.28,2.22-2.54,4.45-2.57,4.53-5,9.14-4.89,9.21-9.32,18.68c-1.22,2.62-5,14.52-9.7,11.08-2.31-1.7-2.73-4.65-4.66-6.56a54.27,54.27,0,0,0-6.27-5.09A89.43,89.43,0,0,0,498,259.36Z"/><path class="cls-4" d="M161.64,267.24c25.43-11.17,51.37-22.46,78.87-25.14,10.72-1,21.94-.86,31.63-5.74a42.33,42.33,0,0,0,15.32-13.9c16.84-24.22,12.55-58.16,1.09-85.54s-29.18-51.81-38.54-80c-4.44-13.37-7.78-28.69-19.14-36.5-5.45-3.76-12.14-5.2-18.68-5.35-18.12-.4-35.07,8.37-51.61,16.06a47.12,47.12,0,0,0-10.32,6.05c-2.22,1.75-4.41,3.56-6.55,5.42-4.29,3.7-8.43,7.61-12.4,11.68a205.88,205.88,0,0,0-21.73,26.41,211.59,211.59,0,0,0-29.44,62.09c-1.37,4.78-3.23,10-3.56,15-.25,3.68,1.94,6.81,3,10.22,3.22,10.63,6.49,21.2,10.23,31.65,2.77,7.73,5.67,15.4,8.64,23q2.22,5.72,4.47,11.42a29.75,29.75,0,0,1,1.9,5.23c.44,2.28,1.29,3.3,2.52,5.4q1.29,2.22,2.55,4.45,2.56,4.53,5,9.14,4.89,9.21,9.32,18.68c1.22,2.62,5,14.52,9.71,11.08,2.3-1.7,2.73-4.64,4.65-6.56a53.53,53.53,0,0,1,6.28-5.09A88.21,88.21,0,0,1,161.64,267.24Z"/><ellipse cx="211.25" cy="172.84" rx="43.22" ry="45"/><ellipse cx="434.72" cy="172.84" rx="43.57" ry="45"/><path d="M345.21,315.39l46.48-28c20.86-12.54,12-44.59-12.38-44.59H286.36c-24.34,0-33.24,32-12.38,44.59l46.47,28A24,24,0,0,0,345.21,315.39Z"/><ellipse class="cls-3" cx="185" cy="157.84" rx="4.82" ry="5"/><path class="cls-3" d="M516,521.34a2.88,2.88,0,0,0,.59-.05c.33-.07,1.61-.45,1.62-.94,0,1,0,2,0,3a7.62,7.62,0,0,0,0,1.51c.14.68.47.83,1,1.35a114.86,114.86,0,0,0,18.95,14.7,101.54,101.54,0,0,0,11.29,6c1,.44,1.93.86,2.9,1.27a20.46,20.46,0,0,0,2.73,1.13,2.76,2.76,0,0,0,2.18-1c.45-.41,1.55-1.56,1.46-2.34a8.37,8.37,0,0,0,2.78,5c1,.95,2.54,1,3.7,1.19a30.42,30.42,0,0,0,12.5,0c8.41-2,14.92-8.44,21.1-14.7,1.43-1.44,3.07-2.78,3.81-4.87a7.38,7.38,0,0,0,.38-2.94c0-.24-.53-3-.76-2.87l1.14-.46c1.17,1.21,3.33,2.64,4.64,1.59a34.39,34.39,0,0,0,4.11-4.55c1.65-1.91,3.26-3.86,4.81-5.89a88.48,88.48,0,0,0,8.36-13,68.07,68.07,0,0,0,3.7-8.4A64.11,64.11,0,0,0,633,475.51a56,56,0,0,0-.83-10.84c-2.12-12-4.27-23.84-5.35-35.91-.24-2.65-.46-5.27-.64-7.87-.24-3.21.64-5.89.64-9.07a30.48,30.48,0,0,0-.89-7.06,41.82,41.82,0,0,0-6-13.35c-5.09-7.58-11.93-13.44-18.65-19.17-11.09-9.44-22.79-19.27-35.94-23.61-2.67-.88-6-2.06-8.68-1.83a6.17,6.17,0,0,0-2.58,1.2,43.73,43.73,0,0,1-4.27,1.86A96.75,96.75,0,0,0,533,359.17a68.74,68.74,0,0,0-23.31,27.07c-6.16,13.14-8.17,28.87-9.5,44.46-1.08,12.73-2.39,25.51-.8,38.68,0,.45.1.89.13,1.32l.06,0-.06.1c.36,5-.68,9.29-1.59,14-.24,1.28-.47,2.56-.68,3.85-.36,2.14-.73,4.29-1,6.48-.19,1.78,1.07,3.28,2,4.85,1.94,3.25,4,6.41,6.24,9.45s4.61,6.06,7.1,8.91c.9,1,1.83,2.47,3.07,2.81A4.74,4.74,0,0,0,516,521.34Z"/><ellipse class="cls-3" cx="404.96" cy="157.84" rx="4.82" ry="5"/><path class="cls-5" d="M20.8,113.31c-3.24,9.4-5.27,19.21-7.17,29C2.09,201.84-4.92,263.89,7.9,322.72a137.36,137.36,0,0,0,8.33,26.9,132,132,0,0,0,15.14,24.79c5.83,7.84,12.78,15.75,22,17.48C65,394.07,76.58,385.21,82.46,374s7.37-24.35,9-37.08a1100.65,1100.65,0,0,1,31.83-159c5.39-19.37,11.48-38.94,22.45-55.39,2.55-3.83,5.47-7.79,5.77-12.47.32-5.17-2.65-9.78-5.53-13.85Q133.75,79,120.17,63c-4.49-5.29-9-10.71-13.86-15.58-3.57-3.55-7-4.78-11.76-3.67A94.19,94.19,0,0,0,64.37,57.12,111.27,111.27,0,0,0,22.31,109.2C21.78,110.56,21.28,111.93,20.8,113.31Z"/><path class="cls-5" d="M627.8,85.44c3.24,9.43,5.27,19.26,7.18,29.09,11.56,59.66,18.6,121.88,5.81,180.84a137.81,137.81,0,0,1-8.33,27,132.59,132.59,0,0,1-15.13,24.85c-5.83,7.85-12.78,15.79-22,17.51-11.62,2.18-23.22-6.7-29.12-17.94s-7.37-24.41-9-37.17a1107.24,1107.24,0,0,0-31.9-159.38c-5.4-19.43-11.5-39.05-22.48-55.55-2.55-3.84-5.47-7.8-5.77-12.5-.32-5.18,2.64-9.8,5.53-13.89Q514.83,51,528.4,35c4.49-5.3,9-10.74,13.86-15.61,3.56-3.57,6.94-4.8,11.75-3.69A94.39,94.39,0,0,1,584.2,29.1a109.8,109.8,0,0,1,24.87,22.64,111.33,111.33,0,0,1,17.22,29.58C626.82,82.68,627.32,84.06,627.8,85.44Z"/></g></g></svg>